<svg width="43" height="39" viewBox="0 0 43 39" fill="none" xmlns="http://www.w3.org/2000/svg">
<path fill-rule="evenodd" clip-rule="evenodd" d="M25.9925 5.08695C20.2112 7.80037 16.2131 13.6304 16.2131 20.3847C16.2131 26.5032 19.4939 31.8632 24.4091 34.8351C22.1915 35.8759 19.7116 36.4581 17.0943 36.4581C7.65336 36.4581 0 28.8825 0 19.5374C0 10.1923 7.65336 2.61662 17.0943 2.61662C20.3539 2.61662 23.4005 3.51972 25.9925 5.08695Z" fill="url(#paint0_linear_24_118)"/>
<path d="M41.7412 5.83131C41.7412 9.83634 31.9438 13.0831 23.3016 13.0831C14.6593 13.0831 13.881 2.03808 7.65338 5.83131C7.65338 1.82627 18.4697 -1.42045 24.9158 3.15373C32.1267 8.27061 39.2829 9.23683 41.7412 5.83131Z" fill="url(#paint1_linear_24_118)"/>
<path d="M43 34.0907C43 30.0857 33.2026 26.839 24.5604 26.839C15.9181 26.839 15.1398 37.884 8.91217 34.0907C8.91217 38.0958 19.7285 41.3425 26.1746 36.7683C33.3855 31.6514 40.5417 30.6852 43 34.0907Z" fill="url(#paint2_linear_24_118)"/>
<defs>
<linearGradient id="paint0_linear_24_118" x1="12.9906" y1="-3.09009" x2="13.7307" y2="41.9408" gradientUnits="userSpaceOnUse">
<stop stop-color="#58536C"/>
<stop offset="0.509168" stop-color="#ABA0DB"/>
<stop offset="1" stop-color="#58536C"/>
</linearGradient>
<linearGradient id="paint1_linear_24_118" x1="24.6973" y1="0.922043" x2="24.6973" y2="13.0831" gradientUnits="userSpaceOnUse">
<stop stop-color="#B2A5E7"/>
<stop offset="1" stop-color="#7A4DB5"/>
</linearGradient>
<linearGradient id="paint2_linear_24_118" x1="25.9561" y1="39" x2="25.9561" y2="26.839" gradientUnits="userSpaceOnUse">
<stop stop-color="#B2A5E7"/>
<stop offset="1" stop-color="#7A4DB5"/>
</linearGradient>
</defs>
</svg>
